<svg id="Layer_1" data-name="Layer 1" xmlns="http://www.w3.org/2000/svg" viewBox="0 0 235.25 74.05"><defs><style>.cls-1{font-size:20.99px;font-family:PT Mono;letter-spacing:-1px;}.cls-1,.cls-2{fill:#231f20;}.cls-2{font-size:22.33px;font-family:Raleway;font-weight:700;}.cls-3{fill:#1da84a;}.cls-4{fill:#fff;}</style></defs><title>HTTPLab-vector</title><text class="cls-1" transform="translate(91.57 49.26)">ht<tspan x="22.25" y="0">tp</tspan></text><text class="cls-2" transform="translate(140.46 49.26)">Lab </text><rect class="cls-3" x="62.24" y="28.37" width="20.51" height="9.64" rx="0.88" ry="0.88" transform="translate(-0.01 66.36) rotate(-49.18)"/><rect class="cls-3" x="67.03" y="26.58" width="15.58" height="6.35" rx="0.62" ry="0.62" transform="translate(3.39 66.92) rotate(-49.18)"/><path class="cls-3" d="M81.54,52.81l-0.28-1.65A25.8,25.8,0,0,0,74.4,37.5l2.16-2.08a28.78,28.78,0,0,1,7.66,15.24l0.28,1.65Z"/><rect class="cls-3" x="61.57" y="34.24" width="15.58" height="4.37" rx="0.53" ry="0.53" transform="translate(-3.54 65.1) rotate(-49.18)"/><circle class="cls-3" cx="75.48" cy="36.47" r="4.01"/><path class="cls-4" d="M75.48,40.81a4.34,4.34,0,1,1,4.34-4.34A4.35,4.35,0,0,1,75.48,40.81Zm0-8a3.68,3.68,0,1,0,3.68,3.68A3.68,3.68,0,0,0,75.48,32.79Z"/><rect class="cls-3" x="62.61" y="50.89" width="19.87" height="3"/><rect class="cls-3" x="56.14" y="46.66" width="13.9" height="2.3"/><polygon class="cls-3" points="56.14 48.96 61.21 50.89 64.86 50.89 70.04 48.96 56.14 48.96"/><rect class="cls-3" x="61.11" y="50.16" width="3" height="3.71"/></svg>